<svg version="1.1" xmlns="http://www.w3.org/2000/svg" viewBox="0 0 250 250"><desc>Created with Snap</desc><defs></defs><g transform="matrix(0.1185,0,0,0.1185,31.5381,162.8457)"><rect x="-266.23999710083007" y="-950.272021484375" width="2110.4640869140626" height="1261.5680297851563" fill="#000000" style=""></rect><g><g transform="matrix(1.024,0,0,-1.024,0,0)"><path d="M341 352Q421 345 470 298Q519 251 519 183Q519 130 491 87Q464 45 416 20Q369 -4 310 -4Q278 -4 240 -1Q226 0 207 1Q188 2 164 2L94 1Q75 0 43 0Q40 0 40 6Q40 12 43 12Q78 12 94 17Q111 23 118 37Q125 51 125 81L125 544Q125 574 118 588Q112 602 95 607Q79 613 44 613Q42 613 42 619Q42 625 44 625L94 624Q138 622 164 622Q191 622 223 625Q234 626 249 627Q265 628 283 628Q369 628 414 592Q459 557 459 497Q459 449 428 410Q397 372 341 352ZM264 611Q240 611 227 606Q215 601 209 586Q204 572 204 542L204 352L248 351Q314 351 347 389Q380 427 380 489Q380 546 351 578Q323 611 264 611ZM294 16Q365 16 399 53Q434 90 434 159Q434 235 392 281Q350 327 273 328Q246 329 204 326L204 81Q204 56 211 42Q218 29 237 22Q256 16 294 16ZM1499 625Q1501 625 1501 619Q1501 613 1499 613Q1427 613 1391 522L1187 1Q1186 -3 1176 -3Q1166 -3 1165 1L1035 281L926 1Q925 -3 915 -3Q905 -3 904 1L653 542Q634 584 617 598Q601 613 571 613Q568 613 568 619Q568 625 571 625L602 624Q628 622 651 622Q696 622 740 624Q754 625 778 625Q781 625 781 619Q781 613 778 613Q749 613 736 607Q723 601 723 584Q723 570 737 539L940 106L1021 311L914 542Q897 579 879 596Q862 613 837 613Q834 613 834 619Q834 625 837 625L868 624Q892 622 912 622Q950 622 982 624Q992 625 1009 625Q1012 625 1012 619Q1012 613 1009 613Q992 613 984 609Q977 606 977 597Q977 589 983 574Q989 559 998 539L1062 402L1111 526Q1125 563 1125 582Q1125 613 1088 613Q1086 613 1086 619Q1086 625 1088 625L1108 624Q1126 622 1154 622Q1173 622 1197 624L1238 625Q1240 625 1240 619Q1240 613 1238 613Q1204 613 1179 592Q1154 571 1135 522L1076 373L1201 106L1365 522Q1374 545 1374 563Q1374 613 1304 613Q1301 613 1301 619Q1301 625 1304 625L1347 624Q1383 622 1410 622Q1430 622 1456 624L1499 625Z" fill="#ffffff" style=""></path></g></g></g></svg>